{
  "accessors": [
    {
      "bufferView": 2,
      "componentType": 5126,
      "count": 7570,
      "max": [
        0.8519932627677917,
        0.8519900441169739,
        0.8299042582511902
      ],
      "min": [
        -0.851993203163147,
        -0.8522226810455322,
        -0.604847252368927
      ],
      "type": "VEC3"
    },
    {
      "bufferView": 2,
      "byteOffset": 90840,
      "componentType": 5126,
      "count": 7570,
      "max": [
        0.9999884366989136,
        0.9999878406524658,
        1.0
      ],
      "min": [
        -0.9999884366989136,
        -0.9999969005584717,
        -1.0
      ],
      "type": "VEC3"
    },
    {
      "bufferView": 1,
      "componentType": 5126,
      "count": 7570,
      "max": [
        0.8750002384185791,
        1.000000238418579
      ],
      "min": [
        0.1250000149011612,
        0.0
      ],
      "type": "VEC2"
    },
    {
      "bufferView": 0,
      "componentType": 5125,
      "count": 41328,
      "type": "SCALAR"
    },
    {
      "bufferView": 2,
      "byteOffset": 181680,
      "componentType": 5126,
      "count": 3892,
      "max": [
        0.920396625995636,
        0.920396625995636,
        0.9401818513870239
      ],
      "min": [
        -0.920396625995636,
        -0.920396625995636,
        -1.0414505004882813
      ],
      "type": "VEC3"
    },
    {
      "bufferView": 2,
      "byteOffset": 228384,
      "componentType": 5126,
      "count": 3892,
      "max": [
        0.9999611377716064,
        0.9999611377716064,
        1.0
      ],
      "min": [
        -0.9999611377716064,
        -0.9999611377716064,
        -1.0
      ],
      "type": "VEC3"
    },
    {
      "bufferView": 1,
      "byteOffset": 60560,
      "componentType": 5126,
      "count": 3892,
      "max": [
        1.0000001192092896,
        1.0000001192092896
      ],
      "min": [
        0.0,
        0.01018422469496727
      ],
      "type": "VEC2"
    },
    {
      "bufferView": 0,
      "byteOffset": 165312,
      "componentType": 5125,
      "count": 16896,
      "type": "SCALAR"
    },
    {
      "bufferView": 2,
      "byteOffset": 275088,
      "componentType": 5126,
      "count": 10498,
      "max": [
        0.9934470057487488,
        0.9928399920463562,
        0.07824284583330154
      ],
      "min": [
        -0.9919588565826416,
        -0.9931073188781738,
        -0.30726245045661926
      ],
      "type": "VEC3"
    },
    {
      "bufferView": 2,
      "byteOffset": 401064,
      "componentType": 5126,
      "count": 10498,
      "max": [
        0.9999988079071045,
        0.9999998807907104,
        1.0
      ],
      "min": [
        -0.9999752044677734,
        -0.9999659061431885,
        -1.0
      ],
      "type": "VEC3"
    },
    {
      "bufferView": 1,
      "byteOffset": 91696,
      "componentType": 5126,
      "count": 10498,
      "max": [
        0.0,
        0.0
      ],
      "min": [
        0.0,
        0.0
      ],
      "type": "VEC2"
    },
    {
      "bufferView": 0,
      "byteOffset": 232896,
      "componentType": 5125,
      "count": 62976,
      "type": "SCALAR"
    },
    {
      "bufferView": 2,
      "byteOffset": 527040,
      "componentType": 5126,
      "count": 5904,
      "max": [
        0.6780041456222534,
        0.8495768904685974,
        0.9112899303436279
      ],
      "min": [
        -0.8912718296051025,
        -0.8426399230957031,
        -0.14855477213859558
      ],
      "type": "VEC3"
    },
    {
      "bufferView": 2,
      "byteOffset": 597888,
      "componentType": 5126,
      "count": 5904,
      "max": [
        0.9949361681938171,
        0.9998202323913574,
        1.0
      ],
      "min": [
        -0.9990208745002747,
        -0.9993098974227905,
        -1.0
      ],
      "type": "VEC3"
    },
    {
      "bufferView": 1,
      "byteOffset": 175680,
      "componentType": 5126,
      "count": 5904,
      "max": [
        0.8750002384185791,
        1.000000238418579
      ],
      "min": [
        0.5000000596046448,
        0.0
      ],
      "type": "VEC2"
    },
    {
      "bufferView": 0,
      "byteOffset": 484800,
      "componentType": 5125,
      "count": 31296,
      "type": "SCALAR"
    },
    {
      "bufferView": 2,
      "byteOffset": 668736,
      "componentType": 5126,
      "count": 1118,
      "max": [
        0.4763065278530121,
        -1.4737963676452637,
        0.23817752301692963
      ],
      "min": [
        -0.4763065278530121,
        -1.6798629760742188,
        0.032111190259456635
      ],
      "type": "VEC3"
    },
    {
      "bufferView": 2,
      "byteOffset": 682152,
      "componentType": 5126,
      "count": 1118,
      "max": [
        1.0,
        1.0,
        1.0
      ],
      "min": [
        -1.0,
        -1.0,
        -1.0
      ],
      "type": "VEC3"
    },
    {
      "bufferView": 1,
      "byteOffset": 222912,
      "componentType": 5126,
      "count": 1118,
      "max": [
        1.0000001192092896,
        1.0
      ],
      "min": [
        0.0,
        0.0
      ],
      "type": "VEC2"
    },
    {
      "bufferView": 0,
      "byteOffset": 609984,
      "componentType": 5125,
      "count": 5760,
      "type": "SCALAR"
    },
    {
      "bufferView": 2,
      "byteOffset": 695568,
      "componentType": 5126,
      "count": 1118,
      "max": [
        0.7411834597587585,
        -1.50205397605896,
        0.05489286780357361
      ],
      "min": [
        -0.7411834597587585,
        -1.6516079902648926,
        -0.25760695338249207
      ],
      "type": "VEC3"
    },
    {
      "bufferView": 2,
      "byteOffset": 708984,
      "componentType": 5126,
      "count": 1118,
      "max": [
        0.9901478290557861,
        0.9984315037727356,
        0.998857319355011
      ],
      "min": [
        -0.9901478290557861,
        -0.998432993888855,
        -0.998857319355011
      ],
      "type": "VEC3"
    },
    {
      "bufferView": 1,
      "byteOffset": 231856,
      "componentType": 5126,
      "count": 1118,
      "max": [
        1.0000001192092896,
        1.0
      ],
      "min": [
        0.0,
        0.0
      ],
      "type": "VEC2"
    },
    {
      "bufferView": 0,
      "byteOffset": 633024,
      "componentType": 5125,
      "count": 5760,
      "type": "SCALAR"
    },
    {
      "bufferView": 2,
      "byteOffset": 722400,
      "componentType": 5126,
      "count": 4515,
      "max": [
        2.3199660778045654,
        2.2464044094085693,
        2.1370067596435547
      ],
      "min": [
        -1.8719414472579956,
        -2.0613932609558105,
        -1.1814239025115967
      ],
      "type": "VEC3"
    },
    {
      "bufferView": 2,
      "byteOffset": 776580,
      "componentType": 5126,
      "count": 4515,
      "max": [
        0.9988055229187012,
        0.9995930194854736,
        0.9935213923454285
      ],
      "min": [
        -0.9999288320541382,
        -0.9999854564666748,
        -0.9961122870445251
      ],
      "type": "VEC3"
    },
    {
      "bufferView": 1,
      "byteOffset": 240800,
      "componentType": 5126,
      "count": 4515,
      "max": [
        0.8750001192092896,
        1.0000001192092896
      ],
      "min": [
        0.1250000149011612,
        0.0
      ],
      "type": "VEC2"
    },
    {
      "bufferView": 0,
      "byteOffset": 656064,
      "componentType": 5125,
      "count": 18480,
      "type": "SCALAR"
    },
    {
      "bufferView": 2,
      "byteOffset": 830760,
      "componentType": 5126,
      "count": 3096,
      "max": [
        2.224609136581421,
        2.2561700344085693,
        2.5312986373901367
      ],
      "min": [
        -2.189563512802124,
        -1.989762544631958,
        -0.9047470092773438
      ],
      "type": "VEC3"
    },
    {
      "bufferView": 2,
      "byteOffset": 867912,
      "componentType": 5126,
      "count": 3096,
      "max": [
        0.9994229078292847,
        0.9997990131378174,
        0.9903874397277832
      ],
      "min": [
        -0.9999850988388062,
        -0.9996442794799805,
        -0.9860444068908691
      ],
      "type": "VEC3"
    },
    {
      "bufferView": 1,
      "byteOffset": 276920,
      "componentType": 5126,
      "count": 3096,
      "max": [
        0.8750001192092896,
        1.0000001192092896
      ],
      "min": [
        0.1250000149011612,
        0.0
      ],
      "type": "VEC2"
    },
    {
      "bufferView": 0,
      "byteOffset": 729984,
      "componentType": 5125,
      "count": 12672,
      "type": "SCALAR"
    },
    {
      "bufferView": 2,
      "byteOffset": 905064,
      "componentType": 5126,
      "count": 3696,
      "max": [
        30.678192138671875,
        24.691102981567383,
        40.43660354614258
      ],
      "min": [
        -5.0110673904418945,
        -13.890142440795898,
        -0.5189510583877563
      ],
      "type": "VEC3"
    },
    {
      "bufferView": 2,
      "byteOffset": 949416,
      "componentType": 5126,
      "count": 3696,
      "max": [
        0.9797019362449646,
        0.9997823238372803,
        0.9984680414199829
      ],
      "min": [
        -0.9785792827606201,
        -0.9998914003372192,
        -0.9979981780052185
      ],
      "type": "VEC3"
    },
    {
      "bufferView": 1,
      "byteOffset": 301688,
      "componentType": 5126,
      "count": 3696,
      "max": [
        1.0,
        1.0
      ],
      "min": [
        0.0,
        0.0
      ],
      "type": "VEC2"
    },
    {
      "bufferView": 0,
      "byteOffset": 780672,
      "componentType": 5125,
      "count": 19440,
      "type": "SCALAR"
    }
  ],
  "asset": {
    "extras": {
      "author": "Starkosha (https://sketchfab.com/Starkosha)",
      "license": "CC-BY-4.0 (http://creativecommons.org/licenses/by/4.0/)",
      "source": "https://sketchfab.com/3d-models/cute-character-b0889531adc346e19b0bc075cfe58457",
      "title": "Cute Character"
    },
    "generator": "Sketchfab-13.48.0",
    "version": "2.0"
  },
  "bufferViews": [
    {
      "buffer": 0,
      "byteLength": 858432,
      "name": "floatBufferViews",
      "target": 34963
    },
    {
      "buffer": 0,
      "byteLength": 331256,
      "byteOffset": 858432,
      "byteStride": 8,
      "name": "floatBufferViews",
      "target": 34962
    },
    {
      "buffer": 0,
      "byteLength": 993768,
      "byteOffset": 1189688,
      "byteStride": 12,
      "name": "floatBufferViews",
      "target": 34962
    }
  ],
  "buffers": [
    {
      "byteLength": 2183456,
      "uri": "scene.bin"
    }
  ],
  "materials": [
    {
      "doubleSided": true,
      "name": "Material.001",
      "pbrMetallicRoughness": {
        "baseColorFactor": [
          0.8,
          0.647494,
          0.3944,
          1.0
        ],
        "metallicFactor": 0.0,
        "roughnessFactor": 0.8520520405779877
      }
    },
    {
      "doubleSided": true,
      "name": "Material.004",
      "pbrMetallicRoughness": {
        "baseColorFactor": [
          0.55,
          0.281152,
          0.12595,
          1.0
        ],
        "metallicFactor": 0.0,
        "roughnessFactor": 0.926857433742747
      }
    },
    {
      "doubleSided": true,
      "name": "Material",
      "pbrMetallicRoughness": {
        "baseColorFactor": [
          0.522068,
          0.692,
          0.0807333,
          1.0
        ],
        "metallicFactor": 0.0,
        "roughnessFactor": 0.8501551591643102
      }
    },
    {
      "doubleSided": true,
      "name": "Material.002",
      "pbrMetallicRoughness": {
        "baseColorFactor": [
          0.0,
          0.0,
          0.0,
          1.0
        ],
        "metallicFactor": 0.0,
        "roughnessFactor": 0.0
      }
    },
    {
      "doubleSided": true,
      "name": "Material.003",
      "pbrMetallicRoughness": {
        "baseColorFactor": [
          0.913792,
          0.360702,
          0.244407,
          1.0
        ],
        "metallicFactor": 0.0,
        "roughnessFactor": 0.8949288573227099
      }
    }
  ],
  "meshes": [
    {
      "name": "Cube_Material.001_0",
      "primitives": [
        {
          "attributes": {
            "NORMAL": 1,
            "POSITION": 0,
            "TEXCOORD_0": 2
          },
          "indices": 3,
          "material": 0,
          "mode": 4
        }
      ]
    },
    {
      "name": "Cylinder_Material.004_0",
      "primitives": [
        {
          "attributes": {
            "NORMAL": 5,
            "POSITION": 4,
            "TEXCOORD_0": 6
          },
          "indices": 7,
          "material": 1,
          "mode": 4
        }
      ]
    },
    {
      "name": "Circle_Material_0",
      "primitives": [
        {
          "attributes": {
            "NORMAL": 9,
            "POSITION": 8,
            "TEXCOORD_0": 10
          },
          "indices": 11,
          "material": 2,
          "mode": 4
        }
      ]
    },
    {
      "name": "Cube.001_Material_0",
      "primitives": [
        {
          "attributes": {
            "NORMAL": 13,
            "POSITION": 12,
            "TEXCOORD_0": 14
          },
          "indices": 15,
          "material": 2,
          "mode": 4
        }
      ]
    },
    {
      "name": "Sphere_Material.002_0",
      "primitives": [
        {
          "attributes": {
            "NORMAL": 17,
            "POSITION": 16,
            "TEXCOORD_0": 18
          },
          "indices": 19,
          "material": 3,
          "mode": 4
        }
      ]
    },
    {
      "name": "Sphere.001_Material.003_0",
      "primitives": [
        {
          "attributes": {
            "NORMAL": 21,
            "POSITION": 20,
            "TEXCOORD_0": 22
          },
          "indices": 23,
          "material": 4,
          "mode": 4
        }
      ]
    },
    {
      "name": "Cube.002_Material_0",
      "primitives": [
        {
          "attributes": {
            "NORMAL": 25,
            "POSITION": 24,
            "TEXCOORD_0": 26
          },
          "indices": 27,
          "material": 2,
          "mode": 4
        }
      ]
    },
    {
      "name": "Cube.012_Material_0",
      "primitives": [
        {
          "attributes": {
            "NORMAL": 29,
            "POSITION": 28,
            "TEXCOORD_0": 30
          },
          "indices": 31,
          "material": 2,
          "mode": 4
        }
      ]
    },
    {
      "name": "NurbsPath.009_Material_0",
      "primitives": [
        {
          "attributes": {
            "NORMAL": 33,
            "POSITION": 32,
            "TEXCOORD_0": 34
          },
          "indices": 35,
          "material": 2,
          "mode": 4
        }
      ]
    }
  ],
  "nodes": [
    {
      "children": [
        1
      ],
      "matrix": [
        1.0,
        0.0,
        0.0,
        0.0,
        0.0,
        2.220446049250313e-16,
        -1.0,
        0.0,
        0.0,
        1.0,
        2.220446049250313e-16,
        0.0,
        0.0,
        0.0,
        0.0,
        1.0
      ],
      "name": "Sketchfab_model"
    },
    {
      "children": [
        2
      ],
      "matrix": [
        0.009999999776482582,
        0.0,
        0.0,
        0.0,
        0.0,
        0.0,
        0.009999999776482582,
        0.0,
        0.0,
        -0.009999999776482582,
        0.0,
        0.0,
        0.0,
        0.0,
        0.0,
        1.0
      ],
      "name": "cute_character.fbx"
    },
    {
      "children": [
        3,
        5,
        7,
        9,
        11,
        13,
        15,
        17,
        19
      ],
      "name": "RootNode"
    },
    {
      "children": [
        4
      ],
      "matrix": [
        200.0,
        0.0,
        0.0,
        0.0,
        0.0,
        -8.742278012618954e-06,
        -199.9999999999998,
        0.0,
        0.0,
        199.9999999999998,
        -8.742278012618954e-06,
        0.0,
        0.0,
        0.0,
        0.0,
        1.0
      ],
      "name": "Cube"
    },
    {
      "mesh": 0,
      "name": "Cube_Material.001_0"
    },
    {
      "children": [
        6
      ],
      "matrix": [
        248.12155151367188,
        0.0,
        0.0,
        0.0,
        0.0,
        -1.0845737921274373e-05,
        -248.12155151367162,
        0.0,
        0.0,
        40.292396545410114,
        -1.7612366619733155e-06,
        0.0,
        0.0,
        -150.61138916015625,
        0.0,
        1.0
      ],
      "name": "Cylinder"
    },
    {
      "mesh": 1,
      "name": "Cylinder_Material.004_0"
    },
    {
      "children": [
        8
      ],
      "matrix": [
        242.8574981689453,
        0.0,
        0.0,
        0.0,
        0.0,
        -1.0615638832210092e-05,
        -242.85749816894506,
        0.0,
        0.0,
        242.85749816894506,
        -1.0615638832210092e-05,
        0.0,
        0.0,
        -105.68902587890625,
        0.0,
        1.0
      ],
      "name": "Circle"
    },
    {
      "mesh": 2,
      "name": "Circle_Material_0"
    },
    {
      "children": [
        10
      ],
      "matrix": [
        200.0,
        0.0,
        0.0,
        0.0,
        0.0,
        -8.742278012618954e-06,
        -199.9999999999998,
        0.0,
        0.0,
        199.9999999999998,
        -8.742278012618954e-06,
        0.0,
        0.0,
        0.0,
        0.0,
        1.0
      ],
      "name": "Cube.001"
    },
    {
      "mesh": 3,
      "name": "Cube.001_Material_0"
    },
    {
      "children": [
        12
      ],
      "matrix": [
        100.0,
        0.0,
        0.0,
        0.0,
        0.0,
        -4.371139006309477e-06,
        -99.9999999999999,
        0.0,
        0.0,
        99.9999999999999,
        -4.371139006309477e-06,
        0.0,
        0.0,
        0.0,
        0.0,
        1.0
      ],
      "name": "Sphere"
    },
    {
      "mesh": 4,
      "name": "Sphere_Material.002_0"
    },
    {
      "children": [
        14
      ],
      "matrix": [
        100.0,
        0.0,
        0.0,
        0.0,
        0.0,
        -4.371139006309477e-06,
        -99.9999999999999,
        0.0,
        0.0,
        99.9999999999999,
        -4.371139006309477e-06,
        0.0,
        0.0,
        0.0,
        0.0,
        1.0
      ],
      "name": "Sphere.001"
    },
    {
      "mesh": 5,
      "name": "Sphere.001_Material.003_0"
    },
    {
      "children": [
        16
      ],
      "matrix": [
        93.9471435546875,
        0.0,
        0.0,
        0.0,
        0.0,
        -4.106560237232505e-06,
        -93.9471435546874,
        0.0,
        0.0,
        93.9471435546874,
        -4.106560237232505e-06,
        0.0,
        0.0,
        0.0,
        0.0,
        1.0
      ],
      "name": "Cube.002"
    },
    {
      "mesh": 6,
      "name": "Cube.002_Material_0"
    },
    {
      "children": [
        18
      ],
      "matrix": [
        100.0,
        0.0,
        0.0,
        0.0,
        0.0,
        -4.371139006309477e-06,
        -99.9999999999999,
        0.0,
        0.0,
        99.9999999999999,
        -4.371139006309477e-06,
        0.0,
        0.0,
        0.0,
        0.0,
        1.0
      ],
      "name": "Cube.012"
    },
    {
      "mesh": 7,
      "name": "Cube.012_Material_0"
    },
    {
      "children": [
        20
      ],
      "matrix": [
        1.2107535059789112,
        10.130401722716648,
        -0.44461165731467794,
        0.0,
        -8.39614602342503,
        1.2526222962987192,
        5.676647906644439,
        0.0,
        5.6857256164033165,
        -0.3074756726112647,
        8.47742086508574,
        0.0,
        -77.02861785888672,
        -82.9456558227539,
        -190.58338928222656,
        1.0
      ],
      "name": "NurbsPath.009"
    },
    {
      "mesh": 8,
      "name": "NurbsPath.009_Material_0"
    }
  ],
  "scene": 0,
  "scenes": [
    {
      "name": "Sketchfab_Scene",
      "nodes": [
        0
      ]
    }
  ]
}
